<mxfile host="app.diagrams.net" modified="2023-08-23T20:23:18.515Z" agent="Mozilla/5.0 (Windows NT 10.0; Win64; x64) AppleWebKit/537.36 (KHTML, like Gecko) Chrome/116.0.0.0 Safari/537.36" etag="wwQXre2e1vvu5xF3BpQF" version="21.6.9" type="google" pages="3">
  <diagram name="Ejemplo" id="GLzU4rvnryb8Ie7Lkiw1">
    <mxGraphModel dx="708" dy="447" grid="1" gridSize="10" guides="1" tooltips="1" connect="1" arrows="1" fold="1" page="1" pageScale="1" pageWidth="1100" pageHeight="850" math="0" shadow="0">
      <root>
        <mxCell id="0" />
        <mxCell id="1" parent="0" />
        <mxCell id="OQ1NX5XlO8wD869Qx8IQ-4" value="" style="edgeStyle=orthogonalEdgeStyle;rounded=0;orthogonalLoop=1;jettySize=auto;html=1;" parent="1" source="OQ1NX5XlO8wD869Qx8IQ-1" target="OQ1NX5XlO8wD869Qx8IQ-3" edge="1">
          <mxGeometry relative="1" as="geometry" />
        </mxCell>
        <mxCell id="OQ1NX5XlO8wD869Qx8IQ-1" value="Alumno" style="whiteSpace=wrap;html=1;align=center;fillColor=#d5e8d4;strokeColor=#82b366;" parent="1" vertex="1">
          <mxGeometry x="140" y="310" width="100" height="40" as="geometry" />
        </mxCell>
        <mxCell id="OQ1NX5XlO8wD869Qx8IQ-2" value="Materia" style="whiteSpace=wrap;html=1;align=center;fillColor=#e1d5e7;strokeColor=#9673a6;" parent="1" vertex="1">
          <mxGeometry x="560" y="310" width="100" height="40" as="geometry" />
        </mxCell>
        <mxCell id="OQ1NX5XlO8wD869Qx8IQ-3" value="Tiene" style="shape=rhombus;perimeter=rhombusPerimeter;whiteSpace=wrap;html=1;align=center;" parent="1" vertex="1">
          <mxGeometry x="340" y="300" width="120" height="60" as="geometry" />
        </mxCell>
        <mxCell id="OQ1NX5XlO8wD869Qx8IQ-5" value="" style="endArrow=classic;html=1;rounded=0;exitX=0;exitY=0.5;exitDx=0;exitDy=0;entryX=1;entryY=0.5;entryDx=0;entryDy=0;" parent="1" source="OQ1NX5XlO8wD869Qx8IQ-2" target="OQ1NX5XlO8wD869Qx8IQ-3" edge="1">
          <mxGeometry width="50" height="50" relative="1" as="geometry">
            <mxPoint x="510" y="280" as="sourcePoint" />
            <mxPoint x="560" y="230" as="targetPoint" />
          </mxGeometry>
        </mxCell>
        <mxCell id="OQ1NX5XlO8wD869Qx8IQ-7" value="" style="edgeStyle=orthogonalEdgeStyle;rounded=0;orthogonalLoop=1;jettySize=auto;html=1;" parent="1" source="OQ1NX5XlO8wD869Qx8IQ-6" target="OQ1NX5XlO8wD869Qx8IQ-1" edge="1">
          <mxGeometry relative="1" as="geometry" />
        </mxCell>
        <mxCell id="OQ1NX5XlO8wD869Qx8IQ-6" value="id_alumno" style="ellipse;whiteSpace=wrap;html=1;align=center;fontStyle=4;fillColor=#d5e8d4;strokeColor=#82b366;" parent="1" vertex="1">
          <mxGeometry x="150" y="240" width="80" height="30" as="geometry" />
        </mxCell>
        <mxCell id="OQ1NX5XlO8wD869Qx8IQ-11" value="" style="edgeStyle=orthogonalEdgeStyle;rounded=0;orthogonalLoop=1;jettySize=auto;html=1;" parent="1" source="OQ1NX5XlO8wD869Qx8IQ-10" target="OQ1NX5XlO8wD869Qx8IQ-2" edge="1">
          <mxGeometry relative="1" as="geometry" />
        </mxCell>
        <mxCell id="OQ1NX5XlO8wD869Qx8IQ-10" value="id_materia" style="ellipse;whiteSpace=wrap;html=1;align=center;fontStyle=4;fillColor=#e1d5e7;strokeColor=#9673a6;" parent="1" vertex="1">
          <mxGeometry x="570" y="240" width="80" height="30" as="geometry" />
        </mxCell>
        <mxCell id="OQ1NX5XlO8wD869Qx8IQ-12" value="1" style="text;strokeColor=none;fillColor=none;spacingLeft=4;spacingRight=4;overflow=hidden;rotatable=0;points=[[0,0.5],[1,0.5]];portConstraint=eastwest;fontSize=12;whiteSpace=wrap;html=1;" parent="1" vertex="1">
          <mxGeometry x="240" y="310" width="20" height="30" as="geometry" />
        </mxCell>
        <mxCell id="OQ1NX5XlO8wD869Qx8IQ-13" value="N" style="text;strokeColor=none;fillColor=none;spacingLeft=4;spacingRight=4;overflow=hidden;rotatable=0;points=[[0,0.5],[1,0.5]];portConstraint=eastwest;fontSize=12;whiteSpace=wrap;html=1;" parent="1" vertex="1">
          <mxGeometry x="310" y="310" width="20" height="30" as="geometry" />
        </mxCell>
        <mxCell id="OQ1NX5XlO8wD869Qx8IQ-14" value="1" style="text;strokeColor=none;fillColor=none;spacingLeft=4;spacingRight=4;overflow=hidden;rotatable=0;points=[[0,0.5],[1,0.5]];portConstraint=eastwest;fontSize=12;whiteSpace=wrap;html=1;" parent="1" vertex="1">
          <mxGeometry x="540" y="310" width="20" height="30" as="geometry" />
        </mxCell>
        <mxCell id="OQ1NX5XlO8wD869Qx8IQ-15" value="N" style="text;strokeColor=none;fillColor=none;spacingLeft=4;spacingRight=4;overflow=hidden;rotatable=0;points=[[0,0.5],[1,0.5]];portConstraint=eastwest;fontSize=12;whiteSpace=wrap;html=1;" parent="1" vertex="1">
          <mxGeometry x="470" y="310" width="20" height="30" as="geometry" />
        </mxCell>
        <mxCell id="OQ1NX5XlO8wD869Qx8IQ-16" value="N:M" style="text;strokeColor=none;fillColor=none;spacingLeft=4;spacingRight=4;overflow=hidden;rotatable=0;points=[[0,0.5],[1,0.5]];portConstraint=eastwest;fontSize=12;whiteSpace=wrap;html=1;" parent="1" vertex="1">
          <mxGeometry x="385" y="275" width="40" height="30" as="geometry" />
        </mxCell>
        <mxCell id="OQ1NX5XlO8wD869Qx8IQ-19" value="" style="edgeStyle=orthogonalEdgeStyle;rounded=0;orthogonalLoop=1;jettySize=auto;html=1;entryX=0;entryY=0.25;entryDx=0;entryDy=0;" parent="1" source="OQ1NX5XlO8wD869Qx8IQ-18" target="OQ1NX5XlO8wD869Qx8IQ-1" edge="1">
          <mxGeometry relative="1" as="geometry" />
        </mxCell>
        <mxCell id="OQ1NX5XlO8wD869Qx8IQ-18" value="nombre" style="ellipse;whiteSpace=wrap;html=1;align=center;" parent="1" vertex="1">
          <mxGeometry x="30" y="280" width="60" height="30" as="geometry" />
        </mxCell>
        <mxCell id="OQ1NX5XlO8wD869Qx8IQ-21" value="" style="edgeStyle=orthogonalEdgeStyle;rounded=0;orthogonalLoop=1;jettySize=auto;html=1;entryX=1;entryY=0.25;entryDx=0;entryDy=0;" parent="1" source="OQ1NX5XlO8wD869Qx8IQ-20" target="OQ1NX5XlO8wD869Qx8IQ-2" edge="1">
          <mxGeometry relative="1" as="geometry" />
        </mxCell>
        <mxCell id="OQ1NX5XlO8wD869Qx8IQ-20" value="nombre" style="ellipse;whiteSpace=wrap;html=1;align=center;" parent="1" vertex="1">
          <mxGeometry x="670" y="380" width="60" height="30" as="geometry" />
        </mxCell>
        <mxCell id="OQ1NX5XlO8wD869Qx8IQ-23" value="" style="edgeStyle=orthogonalEdgeStyle;rounded=0;orthogonalLoop=1;jettySize=auto;html=1;entryX=0;entryY=1;entryDx=0;entryDy=0;" parent="1" source="OQ1NX5XlO8wD869Qx8IQ-22" target="OQ1NX5XlO8wD869Qx8IQ-3" edge="1">
          <mxGeometry relative="1" as="geometry" />
        </mxCell>
        <mxCell id="OQ1NX5XlO8wD869Qx8IQ-22" value="&lt;span style=&quot;border-bottom: 1px dotted&quot;&gt;id_alumno&lt;br&gt;&lt;/span&gt;" style="ellipse;whiteSpace=wrap;html=1;align=center;fillColor=#d5e8d4;strokeColor=#82b366;" parent="1" vertex="1">
          <mxGeometry x="310" y="398" width="75" height="25" as="geometry" />
        </mxCell>
        <mxCell id="OQ1NX5XlO8wD869Qx8IQ-25" value="" style="edgeStyle=orthogonalEdgeStyle;rounded=0;orthogonalLoop=1;jettySize=auto;html=1;entryX=1;entryY=1;entryDx=0;entryDy=0;" parent="1" source="OQ1NX5XlO8wD869Qx8IQ-24" target="OQ1NX5XlO8wD869Qx8IQ-3" edge="1">
          <mxGeometry relative="1" as="geometry" />
        </mxCell>
        <mxCell id="OQ1NX5XlO8wD869Qx8IQ-24" value="&lt;span style=&quot;border-bottom: 1px dotted&quot;&gt;id_materia&lt;br&gt;&lt;/span&gt;" style="ellipse;whiteSpace=wrap;html=1;align=center;fillColor=#e1d5e7;strokeColor=#9673a6;" parent="1" vertex="1">
          <mxGeometry x="405" y="398" width="75" height="22" as="geometry" />
        </mxCell>
      </root>
    </mxGraphModel>
  </diagram>
  <diagram id="Qv452gn9EFxeWJ9wz6Zj" name="Ejercicio 1">
    <mxGraphModel dx="708" dy="447" grid="1" gridSize="10" guides="1" tooltips="1" connect="1" arrows="1" fold="1" page="1" pageScale="1" pageWidth="1100" pageHeight="850" math="0" shadow="0">
      <root>
        <mxCell id="0" />
        <mxCell id="1" parent="0" />
        <mxCell id="Q93AFsF7WD4TYHA8MF60-12" value="" style="rounded=0;whiteSpace=wrap;html=1;fillColor=#b0e3e6;strokeColor=#0e8088;" vertex="1" parent="1">
          <mxGeometry x="350" y="300" width="110" height="120" as="geometry" />
        </mxCell>
        <mxCell id="iYk3_jZB7bq_5PE-RY_9-9" value="" style="edgeStyle=orthogonalEdgeStyle;rounded=0;orthogonalLoop=1;jettySize=auto;html=1;" parent="1" source="iYk3_jZB7bq_5PE-RY_9-4" target="iYk3_jZB7bq_5PE-RY_9-7" edge="1">
          <mxGeometry relative="1" as="geometry" />
        </mxCell>
        <mxCell id="iYk3_jZB7bq_5PE-RY_9-4" value="Cliente" style="whiteSpace=wrap;html=1;align=center;fillColor=#d5e8d4;strokeColor=#82b366;" parent="1" vertex="1">
          <mxGeometry x="210" y="120" width="90" height="30" as="geometry" />
        </mxCell>
        <mxCell id="iYk3_jZB7bq_5PE-RY_9-8" value="" style="edgeStyle=orthogonalEdgeStyle;rounded=0;orthogonalLoop=1;jettySize=auto;html=1;" parent="1" source="iYk3_jZB7bq_5PE-RY_9-6" target="iYk3_jZB7bq_5PE-RY_9-7" edge="1">
          <mxGeometry relative="1" as="geometry" />
        </mxCell>
        <mxCell id="iYk3_jZB7bq_5PE-RY_9-18" value="" style="edgeStyle=orthogonalEdgeStyle;rounded=0;orthogonalLoop=1;jettySize=auto;html=1;" parent="1" source="iYk3_jZB7bq_5PE-RY_9-6" target="iYk3_jZB7bq_5PE-RY_9-17" edge="1">
          <mxGeometry relative="1" as="geometry" />
        </mxCell>
        <mxCell id="iYk3_jZB7bq_5PE-RY_9-6" value="Producto" style="whiteSpace=wrap;html=1;align=center;fillColor=#fff2cc;strokeColor=#d6b656;" parent="1" vertex="1">
          <mxGeometry x="630" y="120" width="90" height="30" as="geometry" />
        </mxCell>
        <mxCell id="iYk3_jZB7bq_5PE-RY_9-7" value="Compra" style="shape=rhombus;perimeter=rhombusPerimeter;whiteSpace=wrap;html=1;align=center;fillColor=#e1d5e7;strokeColor=#9673a6;" parent="1" vertex="1">
          <mxGeometry x="420" y="140" width="100" height="40" as="geometry" />
        </mxCell>
        <mxCell id="iYk3_jZB7bq_5PE-RY_9-10" value="1" style="text;strokeColor=none;fillColor=none;spacingLeft=4;spacingRight=4;overflow=hidden;rotatable=0;points=[[0,0.5],[1,0.5]];portConstraint=eastwest;fontSize=12;whiteSpace=wrap;html=1;" parent="1" vertex="1">
          <mxGeometry x="310" y="110" width="20" height="30" as="geometry" />
        </mxCell>
        <mxCell id="iYk3_jZB7bq_5PE-RY_9-11" value="N" style="text;strokeColor=none;fillColor=none;spacingLeft=4;spacingRight=4;overflow=hidden;rotatable=0;points=[[0,0.5],[1,0.5]];portConstraint=eastwest;fontSize=12;whiteSpace=wrap;html=1;" parent="1" vertex="1">
          <mxGeometry x="390" y="140" width="20" height="30" as="geometry" />
        </mxCell>
        <mxCell id="iYk3_jZB7bq_5PE-RY_9-12" value="1" style="text;strokeColor=none;fillColor=none;spacingLeft=4;spacingRight=4;overflow=hidden;rotatable=0;points=[[0,0.5],[1,0.5]];portConstraint=eastwest;fontSize=12;whiteSpace=wrap;html=1;" parent="1" vertex="1">
          <mxGeometry x="610" y="110" width="20" height="30" as="geometry" />
        </mxCell>
        <mxCell id="iYk3_jZB7bq_5PE-RY_9-13" value="N" style="text;strokeColor=none;fillColor=none;spacingLeft=4;spacingRight=4;overflow=hidden;rotatable=0;points=[[0,0.5],[1,0.5]];portConstraint=eastwest;fontSize=12;whiteSpace=wrap;html=1;" parent="1" vertex="1">
          <mxGeometry x="530" y="140" width="20" height="30" as="geometry" />
        </mxCell>
        <mxCell id="iYk3_jZB7bq_5PE-RY_9-14" value="N:M" style="text;strokeColor=none;fillColor=none;spacingLeft=4;spacingRight=4;overflow=hidden;rotatable=0;points=[[0,0.5],[1,0.5]];portConstraint=eastwest;fontSize=12;whiteSpace=wrap;html=1;" parent="1" vertex="1">
          <mxGeometry x="450" y="110" width="40" height="30" as="geometry" />
        </mxCell>
        <mxCell id="iYk3_jZB7bq_5PE-RY_9-19" value="" style="edgeStyle=orthogonalEdgeStyle;rounded=0;orthogonalLoop=1;jettySize=auto;html=1;" parent="1" source="iYk3_jZB7bq_5PE-RY_9-16" target="iYk3_jZB7bq_5PE-RY_9-17" edge="1">
          <mxGeometry relative="1" as="geometry" />
        </mxCell>
        <mxCell id="iYk3_jZB7bq_5PE-RY_9-16" value="Provedores" style="whiteSpace=wrap;html=1;align=center;fillColor=#dae8fc;strokeColor=#6c8ebf;" parent="1" vertex="1">
          <mxGeometry x="630" y="320" width="90" height="30" as="geometry" />
        </mxCell>
        <mxCell id="iYk3_jZB7bq_5PE-RY_9-17" value="suministrado" style="shape=rhombus;perimeter=rhombusPerimeter;whiteSpace=wrap;html=1;align=center;" parent="1" vertex="1">
          <mxGeometry x="625" y="210" width="100" height="40" as="geometry" />
        </mxCell>
        <mxCell id="iYk3_jZB7bq_5PE-RY_9-20" value="1" style="text;strokeColor=none;fillColor=none;spacingLeft=4;spacingRight=4;overflow=hidden;rotatable=0;points=[[0,0.5],[1,0.5]];portConstraint=eastwest;fontSize=12;whiteSpace=wrap;html=1;" parent="1" vertex="1">
          <mxGeometry x="680" y="300" width="20" height="30" as="geometry" />
        </mxCell>
        <mxCell id="iYk3_jZB7bq_5PE-RY_9-21" value="1" style="text;strokeColor=none;fillColor=none;spacingLeft=4;spacingRight=4;overflow=hidden;rotatable=0;points=[[0,0.5],[1,0.5]];portConstraint=eastwest;fontSize=12;whiteSpace=wrap;html=1;" parent="1" vertex="1">
          <mxGeometry x="680" y="190" width="20" height="30" as="geometry" />
        </mxCell>
        <mxCell id="iYk3_jZB7bq_5PE-RY_9-22" value="1" style="text;strokeColor=none;fillColor=none;spacingLeft=4;spacingRight=4;overflow=hidden;rotatable=0;points=[[0,0.5],[1,0.5]];portConstraint=eastwest;fontSize=12;whiteSpace=wrap;html=1;" parent="1" vertex="1">
          <mxGeometry x="680" y="145" width="20" height="30" as="geometry" />
        </mxCell>
        <mxCell id="iYk3_jZB7bq_5PE-RY_9-23" value="N" style="text;strokeColor=none;fillColor=none;spacingLeft=4;spacingRight=4;overflow=hidden;rotatable=0;points=[[0,0.5],[1,0.5]];portConstraint=eastwest;fontSize=12;whiteSpace=wrap;html=1;" parent="1" vertex="1">
          <mxGeometry x="680" y="250" width="20" height="30" as="geometry" />
        </mxCell>
        <mxCell id="iYk3_jZB7bq_5PE-RY_9-24" value="1:N" style="text;strokeColor=none;fillColor=none;spacingLeft=4;spacingRight=4;overflow=hidden;rotatable=0;points=[[0,0.5],[1,0.5]];portConstraint=eastwest;fontSize=12;whiteSpace=wrap;html=1;" parent="1" vertex="1">
          <mxGeometry x="585" y="215" width="40" height="30" as="geometry" />
        </mxCell>
        <mxCell id="iYk3_jZB7bq_5PE-RY_9-26" value="" style="edgeStyle=orthogonalEdgeStyle;rounded=0;orthogonalLoop=1;jettySize=auto;html=1;" parent="1" source="iYk3_jZB7bq_5PE-RY_9-25" target="iYk3_jZB7bq_5PE-RY_9-4" edge="1">
          <mxGeometry relative="1" as="geometry" />
        </mxCell>
        <mxCell id="iYk3_jZB7bq_5PE-RY_9-25" value="RFC" style="ellipse;whiteSpace=wrap;html=1;align=center;fontStyle=4;fillColor=#d5e8d4;strokeColor=#82b366;" parent="1" vertex="1">
          <mxGeometry x="225" y="40" width="60" height="30" as="geometry" />
        </mxCell>
        <mxCell id="iYk3_jZB7bq_5PE-RY_9-28" value="" style="edgeStyle=orthogonalEdgeStyle;rounded=0;orthogonalLoop=1;jettySize=auto;html=1;entryX=0.5;entryY=0;entryDx=0;entryDy=0;" parent="1" source="iYk3_jZB7bq_5PE-RY_9-27" target="iYk3_jZB7bq_5PE-RY_9-6" edge="1">
          <mxGeometry relative="1" as="geometry" />
        </mxCell>
        <mxCell id="iYk3_jZB7bq_5PE-RY_9-27" value="Codigo" style="ellipse;whiteSpace=wrap;html=1;align=center;fontStyle=4;fillColor=#fff2cc;strokeColor=#d6b656;" parent="1" vertex="1">
          <mxGeometry x="640" y="40" width="70" height="30" as="geometry" />
        </mxCell>
        <mxCell id="iYk3_jZB7bq_5PE-RY_9-30" value="" style="edgeStyle=orthogonalEdgeStyle;rounded=0;orthogonalLoop=1;jettySize=auto;html=1;entryX=1;entryY=0.5;entryDx=0;entryDy=0;" parent="1" source="iYk3_jZB7bq_5PE-RY_9-29" target="iYk3_jZB7bq_5PE-RY_9-16" edge="1">
          <mxGeometry relative="1" as="geometry" />
        </mxCell>
        <mxCell id="iYk3_jZB7bq_5PE-RY_9-29" value="RFC" style="ellipse;whiteSpace=wrap;html=1;align=center;fontStyle=4;fillColor=#dae8fc;strokeColor=#6c8ebf;" parent="1" vertex="1">
          <mxGeometry x="770" y="320" width="60" height="30" as="geometry" />
        </mxCell>
        <mxCell id="iYk3_jZB7bq_5PE-RY_9-34" value="" style="edgeStyle=orthogonalEdgeStyle;rounded=0;orthogonalLoop=1;jettySize=auto;html=1;entryX=0;entryY=1;entryDx=0;entryDy=0;" parent="1" source="iYk3_jZB7bq_5PE-RY_9-31" target="iYk3_jZB7bq_5PE-RY_9-7" edge="1">
          <mxGeometry relative="1" as="geometry">
            <Array as="points">
              <mxPoint x="410" y="230" />
              <mxPoint x="445" y="230" />
            </Array>
          </mxGeometry>
        </mxCell>
        <mxCell id="iYk3_jZB7bq_5PE-RY_9-33" value="" style="edgeStyle=orthogonalEdgeStyle;rounded=0;orthogonalLoop=1;jettySize=auto;html=1;entryX=0.682;entryY=0.943;entryDx=0;entryDy=0;entryPerimeter=0;" parent="1" source="iYk3_jZB7bq_5PE-RY_9-31" target="iYk3_jZB7bq_5PE-RY_9-7" edge="1">
          <mxGeometry relative="1" as="geometry" />
        </mxCell>
        <mxCell id="iYk3_jZB7bq_5PE-RY_9-32" value="&lt;span style=&quot;border-bottom: 1px dotted&quot;&gt;Codigo&lt;/span&gt;" style="ellipse;whiteSpace=wrap;html=1;align=center;fillColor=#fff2cc;strokeColor=#d6b656;" parent="1" vertex="1">
          <mxGeometry x="372.5" y="340" width="55" height="30" as="geometry" />
        </mxCell>
        <mxCell id="iYk3_jZB7bq_5PE-RY_9-37" value="" style="edgeStyle=orthogonalEdgeStyle;rounded=0;orthogonalLoop=1;jettySize=auto;html=1;entryX=0.928;entryY=-0.081;entryDx=0;entryDy=0;entryPerimeter=0;" parent="1" source="iYk3_jZB7bq_5PE-RY_9-35" target="iYk3_jZB7bq_5PE-RY_9-6" edge="1">
          <mxGeometry relative="1" as="geometry">
            <Array as="points">
              <mxPoint x="730" y="50" />
              <mxPoint x="730" y="118" />
            </Array>
          </mxGeometry>
        </mxCell>
        <mxCell id="iYk3_jZB7bq_5PE-RY_9-35" value="&lt;span style=&quot;border-bottom: 1px dotted&quot;&gt;RFC&lt;/span&gt;" style="ellipse;whiteSpace=wrap;html=1;align=center;fillColor=#dae8fc;strokeColor=#6c8ebf;" parent="1" vertex="1">
          <mxGeometry x="750" y="40" width="55" height="20" as="geometry" />
        </mxCell>
        <mxCell id="iYk3_jZB7bq_5PE-RY_9-36" style="edgeStyle=orthogonalEdgeStyle;rounded=0;orthogonalLoop=1;jettySize=auto;html=1;exitX=0.5;exitY=1;exitDx=0;exitDy=0;" parent="1" source="iYk3_jZB7bq_5PE-RY_9-35" target="iYk3_jZB7bq_5PE-RY_9-35" edge="1">
          <mxGeometry relative="1" as="geometry" />
        </mxCell>
        <mxCell id="iYk3_jZB7bq_5PE-RY_9-44" value="" style="edgeStyle=orthogonalEdgeStyle;rounded=0;orthogonalLoop=1;jettySize=auto;html=1;entryX=0;entryY=0;entryDx=0;entryDy=0;" parent="1" source="iYk3_jZB7bq_5PE-RY_9-39" target="iYk3_jZB7bq_5PE-RY_9-4" edge="1">
          <mxGeometry relative="1" as="geometry" />
        </mxCell>
        <mxCell id="iYk3_jZB7bq_5PE-RY_9-39" value="nombre" style="ellipse;whiteSpace=wrap;html=1;align=center;" parent="1" vertex="1">
          <mxGeometry x="130" y="60" width="60" height="20" as="geometry" />
        </mxCell>
        <mxCell id="iYk3_jZB7bq_5PE-RY_9-45" value="" style="edgeStyle=orthogonalEdgeStyle;rounded=0;orthogonalLoop=1;jettySize=auto;html=1;entryX=0;entryY=0.5;entryDx=0;entryDy=0;" parent="1" source="iYk3_jZB7bq_5PE-RY_9-40" target="iYk3_jZB7bq_5PE-RY_9-4" edge="1">
          <mxGeometry relative="1" as="geometry" />
        </mxCell>
        <mxCell id="iYk3_jZB7bq_5PE-RY_9-40" value="apellidos" style="ellipse;whiteSpace=wrap;html=1;align=center;" parent="1" vertex="1">
          <mxGeometry x="120" y="115" width="60" height="25" as="geometry" />
        </mxCell>
        <mxCell id="iYk3_jZB7bq_5PE-RY_9-46" value="" style="edgeStyle=orthogonalEdgeStyle;rounded=0;orthogonalLoop=1;jettySize=auto;html=1;" parent="1" source="iYk3_jZB7bq_5PE-RY_9-41" edge="1">
          <mxGeometry relative="1" as="geometry">
            <mxPoint x="230" y="150" as="targetPoint" />
          </mxGeometry>
        </mxCell>
        <mxCell id="iYk3_jZB7bq_5PE-RY_9-41" value="direccion" style="ellipse;whiteSpace=wrap;html=1;align=center;" parent="1" vertex="1">
          <mxGeometry x="200" y="200" width="60" height="20" as="geometry" />
        </mxCell>
        <mxCell id="iYk3_jZB7bq_5PE-RY_9-47" value="" style="edgeStyle=orthogonalEdgeStyle;rounded=0;orthogonalLoop=1;jettySize=auto;html=1;entryX=0.5;entryY=1;entryDx=0;entryDy=0;" parent="1" source="iYk3_jZB7bq_5PE-RY_9-42" target="iYk3_jZB7bq_5PE-RY_9-4" edge="1">
          <mxGeometry relative="1" as="geometry" />
        </mxCell>
        <mxCell id="iYk3_jZB7bq_5PE-RY_9-42" value="fecha_nacimiento" style="ellipse;whiteSpace=wrap;html=1;align=center;" parent="1" vertex="1">
          <mxGeometry x="225" y="240" width="125" height="25" as="geometry" />
        </mxCell>
        <mxCell id="iYk3_jZB7bq_5PE-RY_9-49" value="" style="edgeStyle=orthogonalEdgeStyle;rounded=0;orthogonalLoop=1;jettySize=auto;html=1;entryX=1;entryY=0.5;entryDx=0;entryDy=0;" parent="1" source="iYk3_jZB7bq_5PE-RY_9-48" target="iYk3_jZB7bq_5PE-RY_9-6" edge="1">
          <mxGeometry relative="1" as="geometry" />
        </mxCell>
        <mxCell id="iYk3_jZB7bq_5PE-RY_9-48" value="nombre" style="ellipse;whiteSpace=wrap;html=1;align=center;" parent="1" vertex="1">
          <mxGeometry x="780" y="125" width="60" height="20" as="geometry" />
        </mxCell>
        <mxCell id="iYk3_jZB7bq_5PE-RY_9-54" value="" style="edgeStyle=orthogonalEdgeStyle;rounded=0;orthogonalLoop=1;jettySize=auto;html=1;entryX=0;entryY=0.5;entryDx=0;entryDy=0;" parent="1" source="iYk3_jZB7bq_5PE-RY_9-50" target="iYk3_jZB7bq_5PE-RY_9-16" edge="1">
          <mxGeometry relative="1" as="geometry" />
        </mxCell>
        <mxCell id="iYk3_jZB7bq_5PE-RY_9-50" value="nombre" style="ellipse;whiteSpace=wrap;html=1;align=center;" parent="1" vertex="1">
          <mxGeometry x="520" y="330" width="60" height="20" as="geometry" />
        </mxCell>
        <mxCell id="iYk3_jZB7bq_5PE-RY_9-53" value="" style="edgeStyle=orthogonalEdgeStyle;rounded=0;orthogonalLoop=1;jettySize=auto;html=1;entryX=0.5;entryY=1;entryDx=0;entryDy=0;" parent="1" source="iYk3_jZB7bq_5PE-RY_9-51" target="iYk3_jZB7bq_5PE-RY_9-16" edge="1">
          <mxGeometry relative="1" as="geometry">
            <mxPoint x="780" y="250" as="targetPoint" />
          </mxGeometry>
        </mxCell>
        <mxCell id="iYk3_jZB7bq_5PE-RY_9-51" value="direccion" style="ellipse;whiteSpace=wrap;html=1;align=center;" parent="1" vertex="1">
          <mxGeometry x="650" y="380" width="60" height="20" as="geometry" />
        </mxCell>
        <mxCell id="iYk3_jZB7bq_5PE-RY_9-56" value="(001,femsa,edomex)" style="text;strokeColor=none;fillColor=none;spacingLeft=4;spacingRight=4;overflow=hidden;rotatable=0;points=[[0,0.5],[1,0.5]];portConstraint=eastwest;fontSize=12;whiteSpace=wrap;html=1;" parent="1" vertex="1">
          <mxGeometry x="745.5" y="380" width="129" height="30" as="geometry" />
        </mxCell>
        <mxCell id="iYk3_jZB7bq_5PE-RY_9-58" value="(001,Sofia,Martine,av 16 sept,14-02-1996)" style="text;strokeColor=none;fillColor=none;spacingLeft=4;spacingRight=4;overflow=hidden;rotatable=0;points=[[0,0.5],[1,0.5]];portConstraint=eastwest;fontSize=12;whiteSpace=wrap;html=1;" parent="1" vertex="1">
          <mxGeometry x="270" y="10" width="260" height="20" as="geometry" />
        </mxCell>
        <mxCell id="iYk3_jZB7bq_5PE-RY_9-62" style="edgeStyle=orthogonalEdgeStyle;rounded=0;orthogonalLoop=1;jettySize=auto;html=1;exitX=0.5;exitY=0;exitDx=0;exitDy=0;entryX=0.889;entryY=1;entryDx=0;entryDy=0;entryPerimeter=0;" parent="1" source="iYk3_jZB7bq_5PE-RY_9-61" target="iYk3_jZB7bq_5PE-RY_9-6" edge="1">
          <mxGeometry relative="1" as="geometry" />
        </mxCell>
        <mxCell id="iYk3_jZB7bq_5PE-RY_9-61" value="precio_u" style="ellipse;whiteSpace=wrap;html=1;align=center;" parent="1" vertex="1">
          <mxGeometry x="790" y="190" width="60" height="20" as="geometry" />
        </mxCell>
        <mxCell id="iYk3_jZB7bq_5PE-RY_9-64" value="" style="edgeStyle=orthogonalEdgeStyle;rounded=0;orthogonalLoop=1;jettySize=auto;html=1;" parent="1" source="iYk3_jZB7bq_5PE-RY_9-63" edge="1">
          <mxGeometry relative="1" as="geometry">
            <mxPoint x="470" y="180" as="targetPoint" />
          </mxGeometry>
        </mxCell>
        <mxCell id="iYk3_jZB7bq_5PE-RY_9-63" value="Cantidad" style="ellipse;whiteSpace=wrap;html=1;align=center;" parent="1" vertex="1">
          <mxGeometry x="450" y="260" width="60" height="20" as="geometry" />
        </mxCell>
        <mxCell id="Q93AFsF7WD4TYHA8MF60-2" value="* Se necesita conocer los datos personales de los clientes (nombre, apellidos, RFC, dirección y fecha de nacimiento).&lt;br style=&quot;border-color: var(--border-color); padding: 0px; margin: 0px; text-align: left;&quot;&gt;&lt;span style=&quot;text-align: left;&quot;&gt;* Cada producto tiene un nombre y un código, así como un precio unitario.&lt;/span&gt;&lt;br style=&quot;border-color: var(--border-color); padding: 0px; margin: 0px; text-align: left;&quot;&gt;&lt;span style=&quot;text-align: left;&quot;&gt;* Un cliente puede comprar varios productos a la empresa, y un mismo producto puede ser comprado por varios &lt;font color=&quot;#33ff33&quot;&gt;clientes.&lt;/font&gt;&lt;/span&gt;&lt;br style=&quot;border-color: var(--border-color); padding: 0px; margin: 0px; text-align: left;&quot;&gt;&lt;span style=&quot;text-align: left;&quot;&gt;* Los productos son suministrados por diferentes proveedores.&lt;/span&gt;&lt;br style=&quot;border-color: var(--border-color); padding: 0px; margin: 0px; text-align: left;&quot;&gt;&lt;span style=&quot;text-align: left;&quot;&gt;* Se debe tener en cuenta que un producto sólo puede ser suministrado por un proveedor, y que un proveedor puede&amp;nbsp; &amp;nbsp; &amp;nbsp; &amp;nbsp;suministrar diferentes productos.&lt;/span&gt;&lt;br style=&quot;border-color: var(--border-color); padding: 0px; margin: 0px; text-align: left;&quot;&gt;&lt;span style=&quot;text-align: left;&quot;&gt;* De cada proveedor se desea conocer el RFC, nombre y dirección.&lt;/span&gt;" style="shape=note;size=20;whiteSpace=wrap;html=1;" vertex="1" parent="1">
          <mxGeometry x="300" y="540" width="680" height="190" as="geometry" />
        </mxCell>
        <mxCell id="Q93AFsF7WD4TYHA8MF60-3" value="(folio,RFC,codigo,cantidad,fecha)&lt;br&gt;(&lt;b&gt;001&lt;/b&gt;,goza6x,001,5,2023-08-23)&lt;br&gt;(&lt;b&gt;001&lt;/b&gt;,goza6x,002,10,2023-08-23)" style="text;strokeColor=none;fillColor=none;spacingLeft=4;spacingRight=4;overflow=hidden;rotatable=0;points=[[0,0.5],[1,0.5]];portConstraint=eastwest;fontSize=17;whiteSpace=wrap;html=1;" vertex="1" parent="1">
          <mxGeometry x="40" y="290" width="290" height="110" as="geometry" />
        </mxCell>
        <mxCell id="Q93AFsF7WD4TYHA8MF60-5" value="" style="edgeStyle=orthogonalEdgeStyle;rounded=0;orthogonalLoop=1;jettySize=auto;html=1;" edge="1" parent="1" source="Q93AFsF7WD4TYHA8MF60-4">
          <mxGeometry relative="1" as="geometry">
            <mxPoint x="432" y="170" as="targetPoint" />
          </mxGeometry>
        </mxCell>
        <mxCell id="Q93AFsF7WD4TYHA8MF60-4" value="&lt;u&gt;folio&lt;/u&gt;" style="ellipse;whiteSpace=wrap;html=1;align=center;fillColor=#e1d5e7;strokeColor=#9673a6;" vertex="1" parent="1">
          <mxGeometry x="367.5" y="380" width="60" height="20" as="geometry" />
        </mxCell>
        <mxCell id="Q93AFsF7WD4TYHA8MF60-7" value="" style="edgeStyle=orthogonalEdgeStyle;rounded=0;orthogonalLoop=1;jettySize=auto;html=1;entryX=1;entryY=0;entryDx=0;entryDy=0;" edge="1" parent="1" source="Q93AFsF7WD4TYHA8MF60-6" target="iYk3_jZB7bq_5PE-RY_9-7">
          <mxGeometry relative="1" as="geometry" />
        </mxCell>
        <mxCell id="Q93AFsF7WD4TYHA8MF60-6" value="Cantidad" style="ellipse;whiteSpace=wrap;html=1;align=center;" vertex="1" parent="1">
          <mxGeometry x="490" y="60" width="60" height="20" as="geometry" />
        </mxCell>
        <mxCell id="Q93AFsF7WD4TYHA8MF60-8" value="001&amp;nbsp; &amp;nbsp; &amp;nbsp; &amp;nbsp; &amp;nbsp; &amp;nbsp; &amp;nbsp; &amp;nbsp; &amp;nbsp; &amp;nbsp;goza6x&lt;br&gt;&lt;br&gt;001 coca-cola 12.00&amp;nbsp; &amp;nbsp;5&amp;nbsp;&lt;br&gt;002 fanta&amp;nbsp; &amp;nbsp; &amp;nbsp; &amp;nbsp; &amp;nbsp;10.00 10" style="text;strokeColor=none;fillColor=none;spacingLeft=4;spacingRight=4;overflow=hidden;rotatable=0;points=[[0,0.5],[1,0.5]];portConstraint=eastwest;fontSize=12;whiteSpace=wrap;html=1;" vertex="1" parent="1">
          <mxGeometry x="20" y="570" width="190" height="120" as="geometry" />
        </mxCell>
        <mxCell id="Q93AFsF7WD4TYHA8MF60-11" value="" style="edgeStyle=orthogonalEdgeStyle;rounded=0;orthogonalLoop=1;jettySize=auto;html=1;entryX=0.682;entryY=0.943;entryDx=0;entryDy=0;entryPerimeter=0;" edge="1" parent="1" source="iYk3_jZB7bq_5PE-RY_9-32" target="iYk3_jZB7bq_5PE-RY_9-31">
          <mxGeometry relative="1" as="geometry">
            <mxPoint x="400" y="340" as="sourcePoint" />
            <mxPoint x="488" y="178" as="targetPoint" />
          </mxGeometry>
        </mxCell>
        <mxCell id="iYk3_jZB7bq_5PE-RY_9-31" value="&lt;span style=&quot;border-bottom: 1px dotted&quot;&gt;RFC&lt;/span&gt;" style="ellipse;whiteSpace=wrap;html=1;align=center;fillColor=#d5e8d4;strokeColor=#82b366;" parent="1" vertex="1">
          <mxGeometry x="367.5" y="310" width="55" height="20" as="geometry" />
        </mxCell>
        <mxCell id="Q93AFsF7WD4TYHA8MF60-13" value="(001,goza6x,001)&lt;br&gt;(001,goza6x,002)&lt;br&gt;(002,goza6x,001)&lt;br&gt;(002,goza6x,003)&lt;br&gt;(003,goza6x,001)&lt;br style=&quot;border-color: var(--border-color);&quot;&gt;(003,goza6x,003)" style="text;html=1;strokeColor=none;fillColor=none;align=center;verticalAlign=middle;whiteSpace=wrap;rounded=0;fontSize=17;" vertex="1" parent="1">
          <mxGeometry x="35" y="400" width="230" height="130" as="geometry" />
        </mxCell>
        <mxCell id="Q93AFsF7WD4TYHA8MF60-14" value="SPK" style="text;html=1;strokeColor=none;fillColor=none;align=center;verticalAlign=middle;whiteSpace=wrap;rounded=0;fontStyle=1;fontSize=17;" vertex="1" parent="1">
          <mxGeometry x="370" y="420" width="60" height="30" as="geometry" />
        </mxCell>
      </root>
    </mxGraphModel>
  </diagram>
  <diagram id="ChfSYBb5rTOBIhTjM17y" name="Ejercicio 2">
    <mxGraphModel grid="1" page="1" gridSize="10" guides="1" tooltips="1" connect="1" arrows="1" fold="1" pageScale="1" pageWidth="1100" pageHeight="850" math="0" shadow="0">
      <root>
        <mxCell id="0" />
        <mxCell id="1" parent="0" />
        <mxCell id="9aVayHT9ke2CXa19g-o4-1" value="&lt;div&gt;Se desea diseñar una base de datos para almacenar y gestionar la información empleada por una empresa dedicada a la venta de automóviles, teniendo en cuenta los siguientes aspectos:&lt;/div&gt;&lt;div&gt;&lt;br&gt;&lt;/div&gt;&lt;div&gt;&lt;ul&gt;&lt;li&gt;La empresa dispone de una serie de &lt;b&gt;coches&lt;/b&gt; para su venta. Se necesita conocer la &lt;u&gt;&lt;b&gt;matrícula&lt;/b&gt;, marca y modelo, el color y el precio&lt;/u&gt; de venta de cada coche.&lt;/li&gt;&lt;li&gt;Los datos que interesa conocer de cada &lt;b&gt;cliente&lt;/b&gt; son el &lt;u&gt;RFC, nombre, dirección, ciudad y número de teléfono&lt;/u&gt;: además, los clientes se diferencian por un &lt;u&gt;&lt;b&gt;código&lt;/b&gt;&lt;/u&gt; interno de la empresa que se incrementa automáticamente cuando un cliente se da de alta en ella.&lt;/li&gt;&lt;li&gt;&lt;i&gt;Un cliente puede &lt;b&gt;comprar&lt;/b&gt; tantos coches como desee a la empresa&lt;/i&gt;.&lt;/li&gt;&lt;li&gt;&lt;i&gt;Un coche determinado solo puede ser &lt;b&gt;comprado&lt;/b&gt; por un único cliente.&lt;/i&gt;&lt;/li&gt;&lt;li&gt;El &lt;strike&gt;concesionario&lt;/strike&gt; también se encarga de &lt;i&gt;&lt;b&gt;llevar a cabo&lt;/b&gt;&lt;/i&gt; las revisiones que se realizan a cada coche.&lt;/li&gt;&lt;li&gt;Cada &lt;b&gt;revisión&lt;/b&gt; tiene asociado un &lt;u&gt;&lt;b&gt;código&lt;/b&gt;&lt;/u&gt; que se incrementa automáticamente por cada revisión que se haga.&lt;/li&gt;&lt;li&gt;De cada revisión se desea saber si se ha hecho &lt;u&gt;cambio de filtro, si se ha hecho cambio de aceite, si se ha hecho cambio de frenos u otros.&lt;/u&gt;&lt;/li&gt;&lt;li&gt;&lt;i&gt;Los coches pueden pasar varias revisiones en el concesionario.&lt;/i&gt;&lt;/li&gt;&lt;/ul&gt;&lt;/div&gt;" style="shape=note;size=20;whiteSpace=wrap;html=1;align=left;" vertex="1" parent="1">
          <mxGeometry x="30" y="10" width="560" height="270" as="geometry" />
        </mxCell>
        <mxCell id="9aVayHT9ke2CXa19g-o4-12" value="" style="edgeStyle=orthogonalEdgeStyle;rounded=0;orthogonalLoop=1;jettySize=auto;html=1;" edge="1" parent="1" source="9aVayHT9ke2CXa19g-o4-2" target="9aVayHT9ke2CXa19g-o4-8">
          <mxGeometry relative="1" as="geometry" />
        </mxCell>
        <mxCell id="9aVayHT9ke2CXa19g-o4-28" value="" style="edgeStyle=orthogonalEdgeStyle;rounded=0;orthogonalLoop=1;jettySize=auto;html=1;" edge="1" parent="1" source="9aVayHT9ke2CXa19g-o4-2" target="9aVayHT9ke2CXa19g-o4-27">
          <mxGeometry relative="1" as="geometry" />
        </mxCell>
        <mxCell id="9aVayHT9ke2CXa19g-o4-2" value="Coche" style="whiteSpace=wrap;html=1;align=center;fillColor=#fad9d5;strokeColor=#ae4132;" vertex="1" parent="1">
          <mxGeometry x="450" y="380" width="80" height="30" as="geometry" />
        </mxCell>
        <mxCell id="9aVayHT9ke2CXa19g-o4-11" value="" style="edgeStyle=orthogonalEdgeStyle;rounded=0;orthogonalLoop=1;jettySize=auto;html=1;" edge="1" parent="1" source="9aVayHT9ke2CXa19g-o4-3" target="9aVayHT9ke2CXa19g-o4-8">
          <mxGeometry relative="1" as="geometry" />
        </mxCell>
        <mxCell id="9aVayHT9ke2CXa19g-o4-3" value="Cliente" style="whiteSpace=wrap;html=1;align=center;fillColor=#fad7ac;strokeColor=#b46504;" vertex="1" parent="1">
          <mxGeometry x="70" y="380" width="80" height="30" as="geometry" />
        </mxCell>
        <mxCell id="9aVayHT9ke2CXa19g-o4-5" value="" style="edgeStyle=orthogonalEdgeStyle;rounded=0;orthogonalLoop=1;jettySize=auto;html=1;" edge="1" parent="1" source="9aVayHT9ke2CXa19g-o4-4" target="9aVayHT9ke2CXa19g-o4-3">
          <mxGeometry relative="1" as="geometry" />
        </mxCell>
        <mxCell id="9aVayHT9ke2CXa19g-o4-4" value="código" style="ellipse;whiteSpace=wrap;html=1;align=center;fontStyle=4;fillColor=#fad7ac;strokeColor=#b46504;" vertex="1" parent="1">
          <mxGeometry x="75" y="320" width="70" height="30" as="geometry" />
        </mxCell>
        <mxCell id="9aVayHT9ke2CXa19g-o4-7" value="" style="edgeStyle=orthogonalEdgeStyle;rounded=0;orthogonalLoop=1;jettySize=auto;html=1;" edge="1" parent="1" source="9aVayHT9ke2CXa19g-o4-6" target="9aVayHT9ke2CXa19g-o4-2">
          <mxGeometry relative="1" as="geometry" />
        </mxCell>
        <mxCell id="9aVayHT9ke2CXa19g-o4-6" value="matrícula" style="ellipse;whiteSpace=wrap;html=1;align=center;fontStyle=4;fillColor=#fad9d5;strokeColor=#ae4132;" vertex="1" parent="1">
          <mxGeometry x="451" y="310" width="79" height="30" as="geometry" />
        </mxCell>
        <mxCell id="9aVayHT9ke2CXa19g-o4-8" value="Compra" style="shape=rhombus;perimeter=rhombusPerimeter;whiteSpace=wrap;html=1;align=center;" vertex="1" parent="1">
          <mxGeometry x="260" y="375" width="90" height="40" as="geometry" />
        </mxCell>
        <mxCell id="9aVayHT9ke2CXa19g-o4-13" value="1" style="text;strokeColor=none;fillColor=none;spacingLeft=4;spacingRight=4;overflow=hidden;rotatable=0;points=[[0,0.5],[1,0.5]];portConstraint=eastwest;fontSize=12;whiteSpace=wrap;html=1;" vertex="1" parent="1">
          <mxGeometry x="430" y="370" width="20" height="30" as="geometry" />
        </mxCell>
        <mxCell id="9aVayHT9ke2CXa19g-o4-14" value="1" style="text;strokeColor=none;fillColor=none;spacingLeft=4;spacingRight=4;overflow=hidden;rotatable=0;points=[[0,0.5],[1,0.5]];portConstraint=eastwest;fontSize=12;whiteSpace=wrap;html=1;" vertex="1" parent="1">
          <mxGeometry x="360" y="370" width="20" height="30" as="geometry" />
        </mxCell>
        <mxCell id="9aVayHT9ke2CXa19g-o4-15" value="1" style="text;strokeColor=none;fillColor=none;spacingLeft=4;spacingRight=4;overflow=hidden;rotatable=0;points=[[0,0.5],[1,0.5]];portConstraint=eastwest;fontSize=12;whiteSpace=wrap;html=1;" vertex="1" parent="1">
          <mxGeometry x="150" y="370" width="20" height="30" as="geometry" />
        </mxCell>
        <mxCell id="9aVayHT9ke2CXa19g-o4-16" value="N" style="text;strokeColor=none;fillColor=none;spacingLeft=4;spacingRight=4;overflow=hidden;rotatable=0;points=[[0,0.5],[1,0.5]];portConstraint=eastwest;fontSize=12;whiteSpace=wrap;html=1;" vertex="1" parent="1">
          <mxGeometry x="230" y="370" width="20" height="30" as="geometry" />
        </mxCell>
        <mxCell id="9aVayHT9ke2CXa19g-o4-17" value="1:N" style="text;strokeColor=none;fillColor=none;spacingLeft=4;spacingRight=4;overflow=hidden;rotatable=0;points=[[0,0.5],[1,0.5]];portConstraint=eastwest;fontSize=12;whiteSpace=wrap;html=1;" vertex="1" parent="1">
          <mxGeometry x="290" y="345" width="30" height="30" as="geometry" />
        </mxCell>
        <mxCell id="9aVayHT9ke2CXa19g-o4-21" value="" style="edgeStyle=orthogonalEdgeStyle;rounded=0;orthogonalLoop=1;jettySize=auto;html=1;entryX=0;entryY=0;entryDx=0;entryDy=0;exitX=0.5;exitY=1;exitDx=0;exitDy=0;" edge="1" parent="1" source="9aVayHT9ke2CXa19g-o4-20" target="9aVayHT9ke2CXa19g-o4-2">
          <mxGeometry relative="1" as="geometry">
            <mxPoint x="490" y="410" as="targetPoint" />
          </mxGeometry>
        </mxCell>
        <mxCell id="9aVayHT9ke2CXa19g-o4-20" value="&lt;span style=&quot;border-bottom: 1px dotted&quot;&gt;código&lt;/span&gt;" style="ellipse;whiteSpace=wrap;html=1;align=center;fillColor=#fad7ac;strokeColor=#b46504;" vertex="1" parent="1">
          <mxGeometry x="370" y="310" width="60" height="30" as="geometry" />
        </mxCell>
        <mxCell id="9aVayHT9ke2CXa19g-o4-24" value="Revisión" style="whiteSpace=wrap;html=1;align=center;fillColor=#d0cee2;strokeColor=#56517e;" vertex="1" parent="1">
          <mxGeometry x="456" y="590" width="69.5" height="30" as="geometry" />
        </mxCell>
        <mxCell id="9aVayHT9ke2CXa19g-o4-26" value="" style="edgeStyle=orthogonalEdgeStyle;rounded=0;orthogonalLoop=1;jettySize=auto;html=1;" edge="1" parent="1" source="9aVayHT9ke2CXa19g-o4-25" target="9aVayHT9ke2CXa19g-o4-24">
          <mxGeometry relative="1" as="geometry" />
        </mxCell>
        <mxCell id="9aVayHT9ke2CXa19g-o4-25" value="código&lt;br&gt;" style="ellipse;whiteSpace=wrap;html=1;align=center;fontStyle=4;fillColor=#d0cee2;strokeColor=#56517e;" vertex="1" parent="1">
          <mxGeometry x="430" y="660" width="70" height="30" as="geometry" />
        </mxCell>
        <mxCell id="9aVayHT9ke2CXa19g-o4-29" value="" style="edgeStyle=orthogonalEdgeStyle;rounded=0;orthogonalLoop=1;jettySize=auto;html=1;" edge="1" parent="1" source="9aVayHT9ke2CXa19g-o4-27" target="9aVayHT9ke2CXa19g-o4-24">
          <mxGeometry relative="1" as="geometry" />
        </mxCell>
        <mxCell id="9aVayHT9ke2CXa19g-o4-27" value="Tiene" style="shape=rhombus;perimeter=rhombusPerimeter;whiteSpace=wrap;html=1;align=center;" vertex="1" parent="1">
          <mxGeometry x="455" y="480" width="70" height="40" as="geometry" />
        </mxCell>
        <mxCell id="9aVayHT9ke2CXa19g-o4-30" value="1" style="text;strokeColor=none;fillColor=none;spacingLeft=4;spacingRight=4;overflow=hidden;rotatable=0;points=[[0,0.5],[1,0.5]];portConstraint=eastwest;fontSize=12;whiteSpace=wrap;html=1;" vertex="1" parent="1">
          <mxGeometry x="470" y="410" width="20" height="30" as="geometry" />
        </mxCell>
        <mxCell id="9aVayHT9ke2CXa19g-o4-31" value="N" style="text;strokeColor=none;fillColor=none;spacingLeft=4;spacingRight=4;overflow=hidden;rotatable=0;points=[[0,0.5],[1,0.5]];portConstraint=eastwest;fontSize=12;whiteSpace=wrap;html=1;" vertex="1" parent="1">
          <mxGeometry x="470" y="460" width="20" height="30" as="geometry" />
        </mxCell>
        <mxCell id="9aVayHT9ke2CXa19g-o4-32" value="1" style="text;strokeColor=none;fillColor=none;spacingLeft=4;spacingRight=4;overflow=hidden;rotatable=0;points=[[0,0.5],[1,0.5]];portConstraint=eastwest;fontSize=12;whiteSpace=wrap;html=1;" vertex="1" parent="1">
          <mxGeometry x="490" y="560" width="20" height="30" as="geometry" />
        </mxCell>
        <mxCell id="9aVayHT9ke2CXa19g-o4-33" value="1" style="text;strokeColor=none;fillColor=none;spacingLeft=4;spacingRight=4;overflow=hidden;rotatable=0;points=[[0,0.5],[1,0.5]];portConstraint=eastwest;fontSize=12;whiteSpace=wrap;html=1;" vertex="1" parent="1">
          <mxGeometry x="490" y="510" width="20" height="30" as="geometry" />
        </mxCell>
        <mxCell id="9aVayHT9ke2CXa19g-o4-35" value="1:N" style="text;strokeColor=none;fillColor=none;spacingLeft=4;spacingRight=4;overflow=hidden;rotatable=0;points=[[0,0.5],[1,0.5]];portConstraint=eastwest;fontSize=12;whiteSpace=wrap;html=1;" vertex="1" parent="1">
          <mxGeometry x="530" y="485" width="30" height="30" as="geometry" />
        </mxCell>
        <mxCell id="9aVayHT9ke2CXa19g-o4-37" value="" style="edgeStyle=orthogonalEdgeStyle;rounded=0;orthogonalLoop=1;jettySize=auto;html=1;" edge="1" parent="1" source="9aVayHT9ke2CXa19g-o4-36">
          <mxGeometry relative="1" as="geometry">
            <mxPoint x="450" y="605" as="targetPoint" />
          </mxGeometry>
        </mxCell>
        <mxCell id="9aVayHT9ke2CXa19g-o4-36" value="&lt;span style=&quot;border-bottom: 1px dotted&quot;&gt;matrícula&lt;/span&gt;" style="ellipse;whiteSpace=wrap;html=1;align=center;fillColor=#fad9d5;strokeColor=#ae4132;" vertex="1" parent="1">
          <mxGeometry x="330" y="590" width="80" height="30" as="geometry" />
        </mxCell>
        <mxCell id="9aVayHT9ke2CXa19g-o4-42" value="" style="edgeStyle=orthogonalEdgeStyle;rounded=0;orthogonalLoop=1;jettySize=auto;html=1;entryX=1;entryY=0;entryDx=0;entryDy=0;" edge="1" parent="1" source="9aVayHT9ke2CXa19g-o4-38" target="9aVayHT9ke2CXa19g-o4-2">
          <mxGeometry relative="1" as="geometry" />
        </mxCell>
        <mxCell id="9aVayHT9ke2CXa19g-o4-38" value="marca" style="ellipse;whiteSpace=wrap;html=1;align=center;" vertex="1" parent="1">
          <mxGeometry x="630" y="320" width="60" height="30" as="geometry" />
        </mxCell>
        <mxCell id="9aVayHT9ke2CXa19g-o4-43" value="" style="edgeStyle=orthogonalEdgeStyle;rounded=0;orthogonalLoop=1;jettySize=auto;html=1;entryX=1;entryY=0.25;entryDx=0;entryDy=0;" edge="1" parent="1" source="9aVayHT9ke2CXa19g-o4-39" target="9aVayHT9ke2CXa19g-o4-2">
          <mxGeometry relative="1" as="geometry" />
        </mxCell>
        <mxCell id="9aVayHT9ke2CXa19g-o4-39" value="modelo" style="ellipse;whiteSpace=wrap;html=1;align=center;" vertex="1" parent="1">
          <mxGeometry x="630" y="360" width="60" height="30" as="geometry" />
        </mxCell>
        <mxCell id="9aVayHT9ke2CXa19g-o4-44" value="" style="edgeStyle=orthogonalEdgeStyle;rounded=0;orthogonalLoop=1;jettySize=auto;html=1;" edge="1" parent="1" source="9aVayHT9ke2CXa19g-o4-40" target="9aVayHT9ke2CXa19g-o4-2">
          <mxGeometry relative="1" as="geometry" />
        </mxCell>
        <mxCell id="9aVayHT9ke2CXa19g-o4-40" value="color" style="ellipse;whiteSpace=wrap;html=1;align=center;" vertex="1" parent="1">
          <mxGeometry x="630" y="400" width="60" height="30" as="geometry" />
        </mxCell>
        <mxCell id="9aVayHT9ke2CXa19g-o4-45" value="" style="edgeStyle=orthogonalEdgeStyle;rounded=0;orthogonalLoop=1;jettySize=auto;html=1;entryX=1;entryY=1;entryDx=0;entryDy=0;" edge="1" parent="1" source="9aVayHT9ke2CXa19g-o4-41" target="9aVayHT9ke2CXa19g-o4-2">
          <mxGeometry relative="1" as="geometry" />
        </mxCell>
        <mxCell id="9aVayHT9ke2CXa19g-o4-41" value="precio" style="ellipse;whiteSpace=wrap;html=1;align=center;" vertex="1" parent="1">
          <mxGeometry x="630" y="440" width="60" height="30" as="geometry" />
        </mxCell>
        <mxCell id="9aVayHT9ke2CXa19g-o4-50" value="" style="edgeStyle=orthogonalEdgeStyle;rounded=0;orthogonalLoop=1;jettySize=auto;html=1;entryX=0;entryY=0.25;entryDx=0;entryDy=0;" edge="1" parent="1" source="9aVayHT9ke2CXa19g-o4-46" target="9aVayHT9ke2CXa19g-o4-3">
          <mxGeometry relative="1" as="geometry" />
        </mxCell>
        <mxCell id="9aVayHT9ke2CXa19g-o4-46" value="RFC" style="ellipse;whiteSpace=wrap;html=1;align=center;" vertex="1" parent="1">
          <mxGeometry x="-60" y="355" width="60" height="30" as="geometry" />
        </mxCell>
        <mxCell id="9aVayHT9ke2CXa19g-o4-51" value="" style="edgeStyle=orthogonalEdgeStyle;rounded=0;orthogonalLoop=1;jettySize=auto;html=1;" edge="1" parent="1" source="9aVayHT9ke2CXa19g-o4-47" target="9aVayHT9ke2CXa19g-o4-3">
          <mxGeometry relative="1" as="geometry" />
        </mxCell>
        <mxCell id="9aVayHT9ke2CXa19g-o4-47" value="nombre" style="ellipse;whiteSpace=wrap;html=1;align=center;" vertex="1" parent="1">
          <mxGeometry x="-60" y="395" width="60" height="30" as="geometry" />
        </mxCell>
        <mxCell id="9aVayHT9ke2CXa19g-o4-52" value="" style="edgeStyle=orthogonalEdgeStyle;rounded=0;orthogonalLoop=1;jettySize=auto;html=1;entryX=0.25;entryY=1;entryDx=0;entryDy=0;" edge="1" parent="1" source="9aVayHT9ke2CXa19g-o4-48" target="9aVayHT9ke2CXa19g-o4-3">
          <mxGeometry relative="1" as="geometry">
            <mxPoint x="10" y="515" as="targetPoint" />
          </mxGeometry>
        </mxCell>
        <mxCell id="9aVayHT9ke2CXa19g-o4-48" value="ciudad" style="ellipse;whiteSpace=wrap;html=1;align=center;" vertex="1" parent="1">
          <mxGeometry x="-60" y="435" width="60" height="30" as="geometry" />
        </mxCell>
        <mxCell id="9aVayHT9ke2CXa19g-o4-53" value="" style="edgeStyle=orthogonalEdgeStyle;rounded=0;orthogonalLoop=1;jettySize=auto;html=1;" edge="1" parent="1" source="9aVayHT9ke2CXa19g-o4-49" target="9aVayHT9ke2CXa19g-o4-3">
          <mxGeometry relative="1" as="geometry" />
        </mxCell>
        <mxCell id="9aVayHT9ke2CXa19g-o4-49" value="numero_telefonico" style="ellipse;whiteSpace=wrap;html=1;align=center;" vertex="1" parent="1">
          <mxGeometry x="50" y="465" width="120" height="40" as="geometry" />
        </mxCell>
        <mxCell id="9aVayHT9ke2CXa19g-o4-58" value="" style="edgeStyle=orthogonalEdgeStyle;rounded=0;orthogonalLoop=1;jettySize=auto;html=1;entryX=0.864;entryY=-0.08;entryDx=0;entryDy=0;entryPerimeter=0;" edge="1" parent="1" source="9aVayHT9ke2CXa19g-o4-54" target="9aVayHT9ke2CXa19g-o4-24">
          <mxGeometry relative="1" as="geometry" />
        </mxCell>
        <mxCell id="9aVayHT9ke2CXa19g-o4-54" value="filtro" style="ellipse;whiteSpace=wrap;html=1;align=center;" vertex="1" parent="1">
          <mxGeometry x="600" y="540" width="60" height="30" as="geometry" />
        </mxCell>
        <mxCell id="9aVayHT9ke2CXa19g-o4-59" value="" style="edgeStyle=orthogonalEdgeStyle;rounded=0;orthogonalLoop=1;jettySize=auto;html=1;entryX=1;entryY=0.25;entryDx=0;entryDy=0;" edge="1" parent="1" source="9aVayHT9ke2CXa19g-o4-55" target="9aVayHT9ke2CXa19g-o4-24">
          <mxGeometry relative="1" as="geometry" />
        </mxCell>
        <mxCell id="9aVayHT9ke2CXa19g-o4-55" value="aceite" style="ellipse;whiteSpace=wrap;html=1;align=center;" vertex="1" parent="1">
          <mxGeometry x="600" y="580" width="60" height="30" as="geometry" />
        </mxCell>
        <mxCell id="9aVayHT9ke2CXa19g-o4-60" value="" style="edgeStyle=orthogonalEdgeStyle;rounded=0;orthogonalLoop=1;jettySize=auto;html=1;entryX=1;entryY=0.75;entryDx=0;entryDy=0;" edge="1" parent="1" source="9aVayHT9ke2CXa19g-o4-56" target="9aVayHT9ke2CXa19g-o4-24">
          <mxGeometry relative="1" as="geometry" />
        </mxCell>
        <mxCell id="9aVayHT9ke2CXa19g-o4-56" value="frenos" style="ellipse;whiteSpace=wrap;html=1;align=center;" vertex="1" parent="1">
          <mxGeometry x="600" y="620" width="60" height="30" as="geometry" />
        </mxCell>
        <mxCell id="9aVayHT9ke2CXa19g-o4-61" value="" style="edgeStyle=orthogonalEdgeStyle;rounded=0;orthogonalLoop=1;jettySize=auto;html=1;entryX=0.891;entryY=1.08;entryDx=0;entryDy=0;entryPerimeter=0;" edge="1" parent="1" source="9aVayHT9ke2CXa19g-o4-57" target="9aVayHT9ke2CXa19g-o4-24">
          <mxGeometry relative="1" as="geometry" />
        </mxCell>
        <mxCell id="9aVayHT9ke2CXa19g-o4-57" value="otros" style="ellipse;whiteSpace=wrap;html=1;align=center;" vertex="1" parent="1">
          <mxGeometry x="600" y="660" width="60" height="30" as="geometry" />
        </mxCell>
      </root>
    </mxGraphModel>
  </diagram>
</mxfile>
